<svg width="580" height="480" xmlns="http://www.w3.org/2000/svg">
 <!-- Created with Method Draw - http://github.com/duopixel/Method-Draw/ -->
 <g>
  <title>background</title>
  <rect fill="#fff" id="canvas_background" height="482" width="582" y="-1" x="-1"/>
  <g display="none" overflow="visible" y="0" x="0" height="100%" width="100%" id="canvasGrid">
   <rect fill="url(#gridpattern)" stroke-width="0" y="0" x="0" height="100%" width="100%"/>
  </g>
 </g>
 <g>
  <title>Layer 1</title>
  <rect stroke="#000" id="svg_1" height="296.000001" width="212.000007" y="59.453124" x="184.000001" stroke-width="1.5" fill="#fff"/>
  <polyline stroke-linecap="round" id="svg_5" points="86.5,254.453125 85.5,254.453125 85.5,254.453125 " fill-opacity="null" stroke-opacity="null" stroke-width="1.5" stroke="#000" fill="none"/>
  <path d="m69.5,217.453125c-69.5,-217.453125 -69.5,-217.453125 -69.5,-217.453125l69.5,217.453125l-1,0l0,-1" id="svg_6" fill-opacity="null" stroke-opacity="null" stroke-width="1.5" stroke="#000" fill="none"/>
  <path d="m47.5,196.453125c-1,-1 -1,-2 -1,-3l0,-1l0,0" id="svg_7" fill-opacity="null" stroke-opacity="null" stroke-width="1.5" stroke="#000" fill="none"/>
  <path id="svg_11" d="m298,9.213154l1.145906,0l0.354094,-0.763934l0.354094,0.763934l1.145906,0l-0.927056,0.472132l0.354112,0.763934l-0.927056,-0.472145l-0.927056,0.472145l0.354112,-0.763934l-0.927056,-0.472132z" fill-opacity="null" stroke-opacity="null" stroke-width="1.5" stroke="#000" fill="#fff"/>
  <path id="svg_13" d="m10.4525,10.77844l1.145906,0l0.354094,-1.909835l0.354094,1.909835l1.145906,0l-0.927056,1.18033l0.354112,1.909835l-0.927056,-1.180362l-0.927056,1.180362l0.354112,-1.909835l-0.927056,-1.18033z" fill-opacity="null" stroke-opacity="null" stroke-width="1.5" stroke="#000" fill="#fff"/>
  <path id="svg_14" d="m29.3575,11.20704l1.145906,0l0.354094,-0.763934l0.354094,0.763934l1.145906,0l-0.927056,0.472132l0.354112,0.763934l-0.927056,-0.472145l-0.927056,0.472145l0.354112,-0.763934l-0.927056,-0.472132z" fill-opacity="null" stroke-opacity="null" stroke-width="1.5" stroke="#000" fill="#fff"/>
  <path id="svg_15" d="m50.252501,12.734908l1.527875,0l0.472125,-2.291802l0.472125,2.291802l1.527875,0l-1.236075,1.416395l0.47215,2.291802l-1.236075,-1.416434l-1.236075,1.416434l0.47215,-2.291802l-1.236075,-1.416395z" fill-opacity="null" stroke-opacity="null" stroke-width="1.5" stroke="#000" fill="#fff"/>
  <path id="svg_21" d="m89.057499,43.57991l0.763939,0l0.236063,-2.291803l0.236063,2.291803l0.763938,0l-0.618038,1.416396l0.236075,2.291803l-0.618038,-1.416434l-0.618038,1.416434l0.236075,-2.291803l-0.618038,-1.416396z" fill-opacity="null" stroke-opacity="null" stroke-width="1.5" stroke="#000" fill="#fff"/>
  <path id="svg_23" d="m113.932499,15.719909l1.909842,0l0.590156,-2.291803l0.590156,2.291803l1.909841,0l-1.545091,1.416396l0.590186,2.291803l-1.545092,-1.416434l-1.545092,1.416434l0.590186,-2.291803l-1.545092,-1.416396z" fill-opacity="null" stroke-opacity="null" stroke-width="1.5" stroke="#000" fill="#fff"/>
  <path id="svg_24" d="m201.492503,26.051875l0.763935,0l0.236062,-2.673769l0.236062,2.673769l0.763934,0l-0.618035,1.652461l0.236074,2.673769l-0.618035,-1.652506l-0.618035,1.652506l0.236074,-2.673769l-0.618035,-1.652461z" fill-opacity="null" stroke-opacity="null" stroke-width="1.5" stroke="#000" fill="#fff"/>
  <path id="svg_25" d="m275.122503,33.479008l1.145908,0l0.354094,-1.145902l0.354095,1.145902l1.145908,0l-0.927057,0.708198l0.354113,1.145902l-0.927058,-0.708218l-0.927057,0.708218l0.354113,-1.145902l-0.927057,-0.708198z" fill-opacity="null" stroke-opacity="null" stroke-width="1.5" stroke="#000" fill="#fff"/>
  <path id="svg_27" d="m411.4375,12.121875l1.527869,0l0.472123,-2.67377l0.472124,2.67377l1.527869,0l-1.23607,1.652462l0.472148,2.67377l-1.236071,-1.652507l-1.23607,1.652507l0.472148,-2.67377l-1.23607,-1.652462z" fill-opacity="null" stroke-opacity="null" stroke-width="1.5" stroke="#000" fill="#fff"/>
  <path id="svg_29" d="m463.17751,61.95204l1.14589,0l0.354089,-0.763935l0.354089,0.763935l1.14589,0l-0.927043,0.472132l0.354107,0.763935l-0.927043,-0.472145l-0.927043,0.472145l0.354107,-0.763935l-0.927043,-0.472132z" fill-opacity="null" stroke-opacity="null" stroke-width="1.5" stroke="#000" fill="#fff"/>
  <path id="svg_30" d="m510.9375,25.519006l0.763942,0l0.236064,-1.145901l0.236064,1.145901l0.763942,0l-0.618041,0.708197l0.236076,1.145901l-0.618042,-0.708217l-0.618041,0.708217l0.236076,-1.145901l-0.618041,-0.708197z" fill-opacity="null" stroke-opacity="null" stroke-width="1.5" stroke="#000" fill="#fff"/>
  <path id="svg_31" d="m447.257488,29.036874l1.527873,0l0.472125,-2.673769l0.472125,2.673769l1.527873,0l-1.236073,1.652461l0.472149,2.673769l-1.236074,-1.652506l-1.236073,1.652506l0.472149,-2.673769l-1.236074,-1.652461z" fill-opacity="null" stroke-opacity="null" stroke-width="1.5" stroke="#000" fill="#fff"/>
  <path id="svg_32" d="m468.152504,98.54378l1.145896,0l0.354091,-0.540674l0.354091,0.540674l1.145896,0l-0.927048,0.334151l0.354109,0.540674l-0.927048,-0.33416l-0.927048,0.33416l0.354109,-0.540674l-0.927048,-0.334151z" fill-opacity="null" stroke-opacity="null" stroke-width="1.5" stroke="#000" fill="#fff"/>
  <path id="svg_33" d="m413.427503,103.661873l1.909856,0l0.59016,-2.673768l0.590161,2.673768l1.909856,0l-1.545103,1.652461l0.590191,2.673768l-1.545104,-1.652506l-1.545103,1.652506l0.590191,-2.673768l-1.545104,-1.652461z" fill-opacity="null" stroke-opacity="null" stroke-width="1.5" stroke="#000" fill="#fff"/>
  <path id="svg_34" d="m530.3325,79.399909l0.381971,0l0.118032,-2.291804l0.118032,2.291804l0.381971,0l-0.309021,1.416397l0.118038,2.291804l-0.309021,-1.416435l-0.309021,1.416435l0.118038,-2.291804l-0.309021,-1.416397z" fill-opacity="null" stroke-opacity="null" stroke-width="1.5" stroke="#000" fill="#fff"/>
  <path id="svg_35" d="m446.262496,169.373837l0.76393,0l0.23606,-0.72573l0.23606,0.72573l0.76393,0l-0.618031,0.448521l0.236072,0.72573l-0.618031,-0.448533l-0.618031,0.448533l0.236072,-0.72573l-0.618031,-0.448521z" fill-opacity="null" stroke-opacity="null" stroke-width="1.5" stroke="#000" fill="#fff"/>
  <path id="svg_36" d="m508.947493,124.405975l1.60829,0l0.496974,-1.527869l0.496974,1.527869l1.60829,0l-1.301132,0.944264l0.497,1.527869l-1.301132,-0.94429l-1.301132,0.94429l0.497,-1.527869l-1.301132,-0.944264z" fill-opacity="null" stroke-opacity="null" stroke-width="1.5" stroke="#000" fill="#fff"/>
  <path id="svg_37" d="m126.8675,113.38458l1.527875,0l0.472125,-1.451475l0.472125,1.451475l1.527875,0l-1.236074,0.89705l0.47215,1.451475l-1.236075,-0.897075l-1.236075,0.897075l0.47215,-1.451475l-1.236075,-0.89705z" fill-opacity="null" stroke-opacity="null" stroke-width="1.5" stroke="#000" fill="#fff"/>
  <path id="svg_38" d="m22.3925,151.920322l2.291813,0l0.708188,-2.177212l0.708188,2.177212l2.291812,0l-1.854112,1.345576l0.708224,2.177212l-1.854113,-1.345612l-1.854112,1.345612l0.708225,-2.177212l-1.854113,-1.345576z" fill-opacity="null" stroke-opacity="null" stroke-width="1.5" stroke="#000" fill="#fff"/>
  <path id="svg_39" d="m94.032498,150.275969l1.608289,0l0.496974,-1.527868l0.496974,1.527868l1.608288,0l-1.301131,0.944263l0.496999,1.527868l-1.301131,-0.944289l-1.301131,0.944289l0.496999,-1.527868l-1.301131,-0.944263z" fill-opacity="null" stroke-opacity="null" stroke-width="1.5" stroke="#000" fill="#fff"/>
  <path id="svg_40" d="m48.752497,114.473187l2.673782,0l0.826219,-2.540081l0.82622,2.540081l2.673781,0l-2.163131,1.569839l0.826262,2.540081l-2.163132,-1.569881l-2.163131,1.569881l0.826262,-2.540081l-2.163132,-1.569839z" fill-opacity="null" stroke-opacity="null" stroke-width="1.5" stroke="#000" fill="#fff"/>
  <path id="svg_41" d="m106.967501,175.764005l1.206213,0l0.372729,-1.145897l0.372729,1.145897l1.206212,0l-0.975845,0.708195l0.372748,1.145897l-0.975845,-0.708214l-0.975845,0.708214l0.372748,-1.145897l-0.975845,-0.708195z" fill-opacity="null" stroke-opacity="null" stroke-width="1.5" stroke="#000" fill="#fff"/>
  <path id="svg_42" d="m116.9175,206.990975l1.608289,0l0.496974,-1.527868l0.496974,1.527868l1.608289,0l-1.301131,0.944263l0.496999,1.527868l-1.301131,-0.944289l-1.301131,0.944289l0.496999,-1.527868l-1.301131,-0.944263z" fill-opacity="null" stroke-opacity="null" stroke-width="1.5" stroke="#000" fill="#fff"/>
  <path id="svg_43" d="m130.847495,60.017443l1.909838,0l0.590155,-1.814338l0.590155,1.814338l1.909838,0l-1.545089,1.12131l0.590185,1.814338l-1.545089,-1.12134l-1.545089,1.12134l0.590185,-1.814338l-1.545089,-1.12131z" fill-opacity="null" stroke-opacity="null" stroke-width="1.5" stroke="#000" fill="#fff"/>
  <path id="svg_44" d="m456.212507,138.949016l1.206222,0l0.372732,-1.145906l0.372732,1.145906l1.206222,0l-0.975853,0.708201l0.372751,1.145906l-0.975853,-0.70822l-0.975853,0.70822l0.372751,-1.145906l-0.975853,-0.708201z" fill-opacity="null" stroke-opacity="null" stroke-width="1.5" stroke="#000" fill="#fff"/>
  <path id="svg_45" d="m477.107504,163.040976l0.381972,0l0.118032,-0.362872l0.118032,0.362872l0.381972,0l-0.309022,0.224265l0.118039,0.362872l-0.309022,-0.224271l-0.309022,0.224271l0.118039,-0.362872l-0.309022,-0.224265z" fill-opacity="null" stroke-opacity="null" stroke-width="1.5" stroke="#000" fill="#fff"/>
  <path id="svg_46" d="m516.907512,158.467039l0.804145,0l0.248487,-0.763935l0.248487,0.763935l0.804145,0l-0.650566,0.472132l0.2485,0.763935l-0.650566,-0.472145l-0.650566,0.472145l0.2485,-0.763935l-0.650566,-0.472132z" fill-opacity="null" stroke-opacity="null" stroke-width="1.5" stroke="#000" fill="#fff"/>
  <path id="svg_47" d="m558.697503,156.510566l0.402075,0l0.124244,-0.38197l0.124244,0.38197l0.402075,0l-0.325285,0.236068l0.124251,0.38197l-0.325285,-0.236074l-0.325285,0.236074l0.124251,-0.38197l-0.325285,-0.236068z" fill-opacity="null" stroke-opacity="null" stroke-width="1.5" stroke="#000" fill="#fff"/>
  <path id="svg_48" d="m547.752499,104.73704l0.804146,0l0.248487,-0.763935l0.248487,0.763935l0.804146,0l-0.650567,0.472133l0.2485,0.763935l-0.650567,-0.472145l-0.650567,0.472145l0.2485,-0.763935l-0.650567,-0.472133z" fill-opacity="null" stroke-opacity="null" stroke-width="1.5" stroke="#000" fill="#fff"/>
  <path id="svg_49" d="m298,9.174957l0.763937,0l0.236063,-0.725737l0.236063,0.725737l0.763937,0l-0.618037,0.448525l0.236075,0.725737l-0.618038,-0.448537l-0.618037,0.448537l0.236075,-0.725737l-0.618037,-0.448525z" fill-opacity="null" stroke-opacity="null" stroke-width="1.5" stroke="#000" fill="#fff"/>
  <path id="svg_50" d="m330.8425,24.569357l0.763941,0l0.236064,-0.725741l0.236064,0.725741l0.763941,0l-0.61804,0.448527l0.236076,0.725741l-0.61804,-0.44854l-0.61804,0.44854l0.236076,-0.725741l-0.61804,-0.448527z" fill-opacity="null" stroke-opacity="null" stroke-width="1.5" stroke="#000" fill="#fff"/>
  <path id="svg_51" d="m13.4375,54.98704l0.804146,0l0.248487,-0.763935l0.248487,0.763935l0.804146,0l-0.650566,0.472132l0.2485,0.763935l-0.650567,-0.472145l-0.650566,0.472145l0.2485,-0.763935l-0.650567,-0.472132z" fill-opacity="null" stroke-opacity="null" stroke-width="1.5" stroke="#000" fill="#fff"/>
  <polyline stroke-linecap="round" id="svg_52" points="19.5,83.453125 19.5,83.453125 19.5,83.453125 " fill-opacity="null" stroke-opacity="null" stroke-width="1.5" stroke="#000" fill="none"/>
  <polyline stroke-linecap="round" id="svg_53" points="53.5,69.453125 54.5,69.453125 " fill-opacity="null" stroke-opacity="null" stroke-width="1.5" stroke="#000" fill="none"/>
  <polyline stroke-linecap="round" id="svg_54" points="42.5,49.453125 42.5,49.453125 43.5,49.453125 " fill-opacity="null" stroke-opacity="null" stroke-width="1.5" stroke="#000" fill="none"/>
  <path d="m52.5,34.453125c1,0 2,0 2,0l0,0" id="svg_55" fill-opacity="null" stroke-opacity="null" stroke-width="1.5" stroke="#000" fill="none"/>
  <path d="m78.5,215.453125c-78.5,-215.453125 -78.5,-215.453125 -78.5,-215.453125l79.5,215.453125l0,-1l0,0" id="svg_56" fill-opacity="null" stroke-opacity="null" stroke-width="1.5" stroke="#000" fill="none"/>
  <polyline stroke-linecap="round" id="svg_57" points="480.5,222.453125 480.5,221.453125 480.5,220.453125 " fill-opacity="null" stroke-opacity="null" stroke-width="1.5" stroke="#000" fill="none"/>
  <path d="m539.5,213.453125c0,0 0,0 1,0l1,0" id="svg_58" fill-opacity="null" stroke-opacity="null" stroke-width="1.5" stroke="#000" fill="none"/>
  <polyline stroke-linecap="round" id="svg_59" points="542.5,31.453125 542.5,31.453125 543.5,30.453125 " fill-opacity="null" stroke-opacity="null" stroke-width="1.5" stroke="#000" fill="none"/>
 </g>
</svg>