<svg id="Слой_1" data-name="Слой 1" xmlns="http://www.w3.org/2000/svg" viewBox="0 0 1832.55 788.61"><defs><style>.cls-1{fill:#fff;}</style></defs><title>space-sky</title><polygon class="cls-1" points="19.52 24.07 17.39 25.19 17.8 22.82 16.07 21.14 18.46 20.79 19.52 18.63 20.59 20.79 22.97 21.14 21.25 22.82 21.66 25.19 19.52 24.07"/><path d="M66,29.5l.5,1,.23.47.52.08,1.13.16-.82.79-.37.37.09.51L67.47,34l-1-.53L66,33.25l-.47.24-1,.53.19-1.12.09-.51L64.44,32l-.82-.79,1.13-.16.52-.08.23-.47.5-1m0-2.26-1.4,2.84-3.12.45,2.26,2.21-.54,3.11L66,34.38l2.8,1.47-.54-3.11,2.26-2.21-3.12-.45L66,27.24Z" transform="translate(-46.48 -9.74)"/><polygon class="cls-1" points="57.52 57.07 55.39 58.19 55.8 55.82 54.08 54.14 56.46 53.79 57.52 51.63 58.59 53.79 60.97 54.14 59.25 55.82 59.66 58.19 57.52 57.07"/><path d="M104,62.5l.5,1,.23.47.52.08,1.13.16-.82.79-.37.37.09.51.19,1.12-1-.53-.47-.24-.47.24-1,.53.19-1.12.09-.51-.37-.37-.82-.79,1.13-.16.52-.08.23-.47.5-1m0-2.26-1.4,2.84-3.12.45,2.26,2.21-.54,3.11,2.8-1.47,2.8,1.47-.54-3.11,2.26-2.21-3.12-.45L104,60.24Z" transform="translate(-46.48 -9.74)"/><polygon class="cls-1" points="191.53 184.07 189.39 185.19 189.8 182.82 188.07 181.14 190.46 180.79 191.53 178.63 192.59 180.79 194.97 181.14 193.25 182.82 193.66 185.19 191.53 184.07"/><path d="M238,189.5l.5,1,.23.47.52.08,1.13.16-.82.79-.37.37.09.51.19,1.12-1-.53-.47-.24-.47.24-1,.53.19-1.12.09-.51-.37-.37-.82-.79,1.13-.16.52-.08.23-.47.5-1m0-2.26-1.4,2.84-3.12.45,2.26,2.21-.54,3.11,2.8-1.47,2.8,1.47-.54-3.11,2.26-2.21-3.12-.45-1.4-2.84Z" transform="translate(-46.48 -9.74)"/><polygon class="cls-1" points="15.03 187.57 12.89 188.69 13.3 186.32 11.57 184.64 13.96 184.29 15.03 182.13 16.09 184.29 18.47 184.64 16.75 186.32 17.16 188.69 15.03 187.57"/><path d="M61.5,193l.5,1,.23.47.52.08,1.13.16-.82.79-.37.37.09.51.19,1.12L62,197l-.47-.24L61,197l-1,.53.19-1.12.09-.51-.37-.37-.82-.79,1.13-.16.52-.08L61,194l.5-1m0-2.26-1.4,2.84L57,194l2.26,2.21-.54,3.11,2.8-1.47,2.8,1.47-.54-3.11L66,194l-3.12-.45-1.4-2.84Z" transform="translate(-46.48 -9.74)"/><polygon class="cls-1" points="187.03 60.57 184.89 61.69 185.3 59.32 183.57 57.64 185.96 57.29 187.03 55.13 188.09 57.29 190.47 57.64 188.75 59.32 189.16 61.69 187.03 60.57"/><path d="M233.5,66l.5,1,.23.47.52.08,1.13.16-.82.79-.37.37.09.51.19,1.12L234,70l-.47-.24L233,70l-1,.53.19-1.12.09-.51-.37-.37-.82-.79,1.13-.16.52-.08L233,67l.5-1m0-2.26-1.4,2.84L229,67l2.26,2.21-.54,3.11,2.8-1.47,2.8,1.47-.54-3.11L238,67l-3.12-.45-1.4-2.84Z" transform="translate(-46.48 -9.74)"/><polygon class="cls-1" points="45.02 278.57 42.89 279.69 43.3 277.32 41.58 275.64 43.96 275.29 45.02 273.13 46.09 275.29 48.47 275.64 46.75 277.32 47.16 279.69 45.02 278.57"/><path d="M91.5,284l.5,1,.23.47.52.08,1.13.16-.82.79-.37.37.09.51.19,1.12L92,288l-.47-.24L91,288l-1,.53.19-1.12.09-.51-.37-.37-.82-.79,1.13-.16.52-.08L91,285l.5-1m0-2.26-1.4,2.84L87,285l2.26,2.21-.54,3.11,2.8-1.47,2.8,1.47-.54-3.11L96,285l-3.12-.45-1.4-2.84Z" transform="translate(-46.48 -9.74)"/><polygon class="cls-1" points="477.52 38.07 475.39 39.19 475.8 36.82 474.07 35.14 476.46 34.79 477.52 32.63 478.59 34.79 480.97 35.14 479.25 36.82 479.66 39.19 477.52 38.07"/><path d="M524,43.5l.5,1,.23.47.52.08,1.13.16-.82.79-.37.37.09.51.19,1.12-1-.53-.47-.24-.47.24-1,.53.19-1.12.09-.51-.37-.37-.82-.79,1.13-.16.52-.08.23-.47.5-1m0-2.26-1.4,2.84-3.12.45,2.26,2.21-.54,3.11,2.8-1.47,2.8,1.47-.54-3.11,2.26-2.21-3.12-.45L524,41.24Z" transform="translate(-46.48 -9.74)"/><polygon class="cls-1" points="637.02 163.57 634.89 164.69 635.3 162.32 633.58 160.64 635.96 160.29 637.02 158.13 638.09 160.29 640.47 160.64 638.75 162.32 639.16 164.69 637.02 163.57"/><path d="M683.5,169l.5,1,.23.47.52.08,1.13.16-.82.79-.37.37.09.51.19,1.12-1-.53-.47-.24L683,173l-1,.53.19-1.12.09-.51-.37-.37-.82-.79,1.13-.16.52-.08L683,170l.5-1m0-2.26-1.4,2.84L679,170l2.26,2.21-.54,3.11,2.8-1.47,2.8,1.47-.54-3.11L688,170l-3.12-.45-1.4-2.84Z" transform="translate(-46.48 -9.74)"/><polygon class="cls-1" points="309.52 219.07 307.39 220.19 307.8 217.82 306.07 216.14 308.46 215.79 309.52 213.63 310.59 215.79 312.97 216.14 311.25 217.82 311.66 220.19 309.52 219.07"/><path d="M356,224.5l.5,1,.23.47.52.08,1.13.16-.82.79-.37.37.09.51.19,1.12-1-.53-.47-.24-.47.24-1,.53.19-1.12.09-.51-.37-.37-.82-.79,1.13-.16.52-.08.23-.47.5-1m0-2.26-1.4,2.84-3.12.45,2.26,2.21-.54,3.11,2.8-1.47,2.8,1.47-.54-3.11,2.26-2.21-3.12-.45-1.4-2.84Z" transform="translate(-46.48 -9.74)"/><polygon class="cls-1" points="115.53 613.07 113.39 614.19 113.8 611.82 112.07 610.14 114.46 609.79 115.53 607.63 116.59 609.79 118.97 610.14 117.25 611.82 117.66 614.19 115.53 613.07"/><path d="M162,618.5l.5,1,.23.47.52.08,1.13.16-.82.79-.37.37.09.51.19,1.12-1-.53-.47-.24-.47.24-1,.53.19-1.12.09-.51-.37-.37-.82-.79,1.13-.16.52-.08.23-.47.5-1m0-2.26-1.4,2.84-3.12.45,2.26,2.21-.54,3.11,2.8-1.47,2.8,1.47-.54-3.11,2.26-2.21-3.12-.45-1.4-2.84Z" transform="translate(-46.48 -9.74)"/><polygon class="cls-1" points="4.53 410.07 2.39 411.19 2.8 408.82 1.07 407.14 3.46 406.79 4.53 404.63 5.59 406.79 7.97 407.14 6.25 408.82 6.66 411.19 4.53 410.07"/><path d="M51,415.5l.5,1,.23.47.52.08,1.13.16-.82.79-.37.37.09.51.19,1.12-1-.53-.47-.24-.47.24-1,.53.19-1.12.09-.51-.37-.37-.82-.79,1.13-.16.52-.08.23-.47.5-1m0-2.26-1.4,2.84-3.12.45,2.26,2.21-.54,3.11,2.8-1.47,2.8,1.47-.54-3.11,2.26-2.21-3.12-.45L51,413.24Z" transform="translate(-46.48 -9.74)"/><polygon class="cls-1" points="191.53 422.07 189.39 423.19 189.8 420.82 188.07 419.14 190.46 418.79 191.53 416.63 192.59 418.79 194.97 419.14 193.25 420.82 193.66 423.19 191.53 422.07"/><path d="M238,427.5l.5,1,.23.47.52.08,1.13.16-.82.79-.37.37.09.51.19,1.12-1-.53-.47-.24-.47.24-1,.53.19-1.12.09-.51-.37-.37-.82-.79,1.13-.16.52-.08.23-.47.5-1m0-2.26-1.4,2.84-3.12.45,2.26,2.21-.54,3.11,2.8-1.47,2.8,1.47-.54-3.11,2.26-2.21-3.12-.45-1.4-2.84Z" transform="translate(-46.48 -9.74)"/><polygon class="cls-1" points="191.53 337.07 189.39 338.19 189.8 335.82 188.07 334.14 190.46 333.79 191.53 331.63 192.59 333.79 194.97 334.14 193.25 335.82 193.66 338.19 191.53 337.07"/><path d="M238,342.5l.5,1,.23.47.52.08,1.13.16-.82.79-.37.37.09.51.19,1.12-1-.53-.47-.24-.47.24-1,.53.19-1.12.09-.51-.37-.37-.82-.79,1.13-.16.52-.08.23-.47.5-1m0-2.26-1.4,2.84-3.12.45,2.26,2.21-.54,3.11,2.8-1.47,2.8,1.47-.54-3.11,2.26-2.21-3.12-.45-1.4-2.84Z" transform="translate(-46.48 -9.74)"/><polygon class="cls-1" points="40.52 584.07 38.39 585.19 38.8 582.82 37.07 581.14 39.46 580.79 40.52 578.63 41.59 580.79 43.98 581.14 42.25 582.82 42.66 585.19 40.52 584.07"/><path d="M87,589.5l.5,1,.23.47.52.08,1.13.16-.82.79-.37.37.09.51.19,1.12-1-.53-.47-.24-.47.24-1,.53.19-1.12.09-.51-.37-.37-.82-.79,1.13-.16.52-.08.23-.47.5-1m0-2.26-1.4,2.84-3.12.45,2.26,2.21-.54,3.11,2.8-1.47,2.8,1.47-.54-3.11,2.26-2.21-3.12-.45L87,587.24Z" transform="translate(-46.48 -9.74)"/><polygon class="cls-1" points="57.52 715.07 55.39 716.19 55.8 713.82 54.07 712.14 56.46 711.79 57.52 709.63 58.59 711.79 60.98 712.14 59.25 713.82 59.66 716.19 57.52 715.07"/><path d="M104,720.5l.5,1,.23.47.52.08,1.13.16-.82.79-.37.37.09.51.19,1.12-1-.53-.47-.24-.47.24-1,.53.19-1.12.09-.51-.37-.37-.82-.79,1.13-.16.52-.08.23-.47.5-1m0-2.26-1.4,2.84-3.12.45,2.26,2.21-.54,3.11,2.8-1.47,2.8,1.47-.54-3.11,2.26-2.21-3.12-.45-1.4-2.84Z" transform="translate(-46.48 -9.74)"/><polygon class="cls-1" points="299.52 480.07 297.39 481.19 297.8 478.82 296.07 477.14 298.46 476.79 299.52 474.63 300.59 476.79 302.97 477.14 301.25 478.82 301.66 481.19 299.52 480.07"/><path d="M346,485.5l.5,1,.23.47.52.08,1.13.16-.82.79-.37.37.09.51.19,1.12-1-.53-.47-.24-.47.24-1,.53.19-1.12.09-.51-.37-.37-.82-.79,1.13-.16.52-.08.23-.47.5-1m0-2.26-1.4,2.84-3.12.45,2.26,2.21-.54,3.11,2.8-1.47,2.8,1.47-.54-3.11,2.26-2.21-3.12-.45-1.4-2.84Z" transform="translate(-46.48 -9.74)"/><polygon class="cls-1" points="449.02 463.57 446.89 464.69 447.3 462.32 445.57 460.64 447.96 460.29 449.02 458.13 450.09 460.29 452.47 460.64 450.75 462.32 451.16 464.69 449.02 463.57"/><path d="M495.5,469l.5,1,.23.47.52.08,1.13.16-.82.79-.37.37.09.51.19,1.12-1-.53-.47-.24L495,473l-1,.53.19-1.12.09-.51-.37-.37-.82-.79,1.13-.16.52-.08L495,470l.5-1m0-2.26-1.4,2.84L491,470l2.26,2.21-.54,3.11,2.8-1.47,2.8,1.47-.54-3.11L500,470l-3.12-.45-1.4-2.84Z" transform="translate(-46.48 -9.74)"/><polygon class="cls-1" points="536.02 124.57 533.89 125.69 534.3 123.32 532.58 121.64 534.96 121.29 536.02 119.13 537.09 121.29 539.47 121.64 537.75 123.32 538.16 125.69 536.02 124.57"/><path d="M582.5,130l.5,1,.23.47.52.08,1.13.16-.82.79-.37.37.09.51.19,1.12-1-.53-.47-.24L582,134l-1,.53.19-1.12.09-.51-.37-.37-.82-.79,1.13-.16.52-.08L582,131l.5-1m0-2.26-1.4,2.84L578,131l2.26,2.21-.54,3.11,2.8-1.47,2.8,1.47-.54-3.11L587,131l-3.12-.45-1.4-2.84Z" transform="translate(-46.48 -9.74)"/><polygon class="cls-1" points="929.52 84.07 927.39 85.19 927.8 82.82 926.07 81.14 928.46 80.79 929.52 78.63 930.59 80.79 932.98 81.14 931.25 82.82 931.66 85.19 929.52 84.07"/><path d="M976,89.5l.5,1,.23.47.52.08,1.13.16-.82.79-.37.37.09.51.19,1.12-1-.53-.47-.24-.47.24-1,.53.19-1.12.09-.51-.37-.37-.82-.79,1.13-.16.52-.08.23-.47.5-1m0-2.26-1.4,2.84-3.12.45,2.26,2.21-.54,3.11,2.8-1.47,2.8,1.47-.54-3.11,2.26-2.21-3.12-.45L976,87.24Z" transform="translate(-46.48 -9.74)"/><polygon class="cls-1" points="695.52 42.07 693.39 43.19 693.8 40.82 692.08 39.14 694.46 38.79 695.52 36.63 696.59 38.79 698.97 39.14 697.25 40.82 697.66 43.19 695.52 42.07"/><path d="M742,47.5l.5,1,.23.47.52.08,1.13.16-.82.79-.37.37.09.51.19,1.12-1-.53-.47-.24-.47.24-1,.53.19-1.12.09-.51-.37-.37-.82-.79,1.13-.16.52-.08.23-.47.5-1m0-2.26-1.4,2.84-3.12.45,2.26,2.21-.54,3.11,2.8-1.47,2.8,1.47-.54-3.11,2.26-2.21-3.12-.45L742,45.24Z" transform="translate(-46.48 -9.74)"/><polygon class="cls-1" points="850.02 37.57 847.89 38.69 848.3 36.32 846.58 34.64 848.96 34.29 850.02 32.13 851.09 34.29 853.47 34.64 851.75 36.32 852.16 38.69 850.02 37.57"/><path d="M896.5,43l.5,1,.23.47.52.08,1.13.16-.82.79-.37.37.09.51.19,1.12L897,47l-.47-.24L896,47l-1,.53.19-1.12.09-.51-.37-.37-.82-.79,1.13-.16.52-.08L896,44l.5-1m0-2.26-1.4,2.84L892,44l2.26,2.21-.54,3.11,2.8-1.47,2.8,1.47-.54-3.11L901,44l-3.12-.45-1.4-2.84Z" transform="translate(-46.48 -9.74)"/><polygon class="cls-1" points="771.52 147.07 769.39 148.19 769.8 145.82 768.08 144.14 770.46 143.79 771.52 141.63 772.59 143.79 774.97 144.14 773.25 145.82 773.66 148.19 771.52 147.07"/><path d="M818,152.5l.5,1,.23.47.52.08,1.13.16-.82.79-.37.37.09.51.19,1.12-1-.53-.47-.24-.47.24-1,.53.19-1.12.09-.51-.37-.37-.82-.79,1.13-.16.52-.08.23-.47.5-1m0-2.26-1.4,2.84-3.12.45,2.26,2.21-.54,3.11,2.8-1.47,2.8,1.47-.54-3.11,2.26-2.21-3.12-.45-1.4-2.84Z" transform="translate(-46.48 -9.74)"/><polygon class="cls-1" points="1089.03 41.57 1086.89 42.69 1087.3 40.32 1085.57 38.64 1087.96 38.29 1089.03 36.13 1090.09 38.29 1092.47 38.64 1090.75 40.32 1091.16 42.69 1089.03 41.57"/><path d="M1135.5,47l.5,1,.23.47.52.08,1.13.16-.82.79-.37.37.09.51.19,1.12-1-.53-.47-.24L1135,51l-1,.53.19-1.12.09-.51-.37-.37-.82-.79,1.13-.16.52-.08L1135,48l.5-1m0-2.26-1.4,2.84L1131,48l2.26,2.21-.54,3.11,2.8-1.47,2.8,1.47-.54-3.11L1140,48l-3.12-.45-1.4-2.84Z" transform="translate(-46.48 -9.74)"/><polygon class="cls-1" points="1039.53 163.07 1037.39 164.19 1037.8 161.82 1036.07 160.14 1038.46 159.79 1039.53 157.63 1040.59 159.79 1042.97 160.14 1041.25 161.82 1041.66 164.19 1039.53 163.07"/><path d="M1086,168.5l.5,1,.23.47.52.08,1.13.16-.82.79-.37.37.09.51.19,1.12-1-.53-.47-.24-.47.24-1,.53.19-1.12.09-.51-.37-.37-.82-.79,1.13-.16.52-.08.23-.47.5-1m0-2.26-1.4,2.84-3.12.45,2.26,2.21-.54,3.11,2.8-1.47,2.8,1.47-.54-3.11,2.26-2.21-3.12-.45-1.4-2.84Z" transform="translate(-46.48 -9.74)"/><polygon class="cls-1" points="1272.53 113.07 1270.39 114.19 1270.8 111.82 1269.07 110.14 1271.46 109.79 1272.53 107.63 1273.59 109.79 1275.97 110.14 1274.25 111.82 1274.66 114.19 1272.53 113.07"/><path d="M1319,118.5l.5,1,.23.47.52.08,1.13.16-.82.79-.37.37.09.51.19,1.12-1-.53-.47-.24-.47.24-1,.53.19-1.12.09-.51-.37-.37-.82-.79,1.13-.16.52-.08.23-.47.5-1m0-2.26-1.4,2.84-3.12.45,2.26,2.21-.54,3.11,2.8-1.47,2.8,1.47-.54-3.11,2.26-2.21-3.12-.45-1.4-2.84Z" transform="translate(-46.48 -9.74)"/><polygon class="cls-1" points="913.52 142.07 911.39 143.19 911.8 140.82 910.08 139.14 912.46 138.79 913.52 136.63 914.59 138.79 916.98 139.14 915.25 140.82 915.66 143.19 913.52 142.07"/><path d="M960,147.5l.5,1,.23.47.52.08,1.13.16-.82.79-.37.37.09.51.19,1.12-1-.53-.47-.24-.47.24-1,.53.19-1.12.09-.51-.37-.37-.82-.79,1.13-.16.52-.08.23-.47.5-1m0-2.26-1.4,2.84-3.12.45,2.26,2.21-.54,3.11,2.8-1.47,2.8,1.47-.54-3.11,2.26-2.21-3.12-.45-1.4-2.84Z" transform="translate(-46.48 -9.74)"/><polygon class="cls-1" points="1119.53 100.07 1117.39 101.19 1117.8 98.82 1116.07 97.14 1118.46 96.79 1119.53 94.63 1120.59 96.79 1122.97 97.14 1121.25 98.82 1121.66 101.19 1119.53 100.07"/><path d="M1166,105.5l.5,1,.23.47.52.08,1.13.16-.82.79-.37.37.09.51.19,1.12-1-.53-.47-.24-.47.24-1,.53.19-1.12.09-.51-.37-.37-.82-.79,1.13-.16.52-.08.23-.47.5-1m0-2.26-1.4,2.84-3.12.45,2.26,2.21-.54,3.11,2.8-1.47,2.8,1.47-.54-3.11,2.26-2.21-3.12-.45-1.4-2.84Z" transform="translate(-46.48 -9.74)"/><polygon class="cls-1" points="1204.03 268.57 1201.89 269.69 1202.3 267.32 1200.57 265.64 1202.96 265.29 1204.03 263.13 1205.09 265.29 1207.47 265.64 1205.75 267.32 1206.16 269.69 1204.03 268.57"/><path d="M1250.5,274l.5,1,.23.47.52.08,1.13.16-.82.79-.37.37.09.51.19,1.12-1-.53-.47-.24-.47.24-1,.53.19-1.12.09-.51-.37-.37-.82-.79,1.13-.16.52-.08.23-.47.5-1m0-2.26-1.4,2.84L1246,275l2.26,2.21-.54,3.11,2.8-1.47,2.8,1.47-.54-3.11L1255,275l-3.12-.45-1.4-2.84Z" transform="translate(-46.48 -9.74)"/><polygon class="cls-1" points="1352.53 228.07 1350.39 229.19 1350.8 226.82 1349.07 225.14 1351.46 224.79 1352.53 222.63 1353.59 224.79 1355.97 225.14 1354.25 226.82 1354.66 229.19 1352.53 228.07"/><path d="M1399,233.5l.5,1,.23.47.52.08,1.13.16-.82.79-.37.37.09.51.19,1.12-1-.53-.47-.24-.47.24-1,.53.19-1.12.09-.51-.37-.37-.82-.79,1.13-.16.52-.08.23-.47.5-1m0-2.26-1.4,2.84-3.12.45,2.26,2.21-.54,3.11,2.8-1.47,2.8,1.47-.54-3.11,2.26-2.21-3.12-.45-1.4-2.84Z" transform="translate(-46.48 -9.74)"/><polygon class="cls-1" points="1490.53 137.07 1488.39 138.19 1488.8 135.82 1487.07 134.14 1489.46 133.79 1490.53 131.63 1491.59 133.79 1493.97 134.14 1492.25 135.82 1492.66 138.19 1490.53 137.07"/><path d="M1537,142.5l.5,1,.23.47.52.08,1.13.16-.82.79-.37.37.09.51.19,1.12-1-.53-.47-.24-.47.24-1,.53.19-1.12.09-.51-.37-.37-.82-.79,1.13-.16.52-.08.23-.47.5-1m0-2.26-1.4,2.84-3.12.45,2.26,2.21-.54,3.11,2.8-1.47,2.8,1.47-.54-3.11,2.26-2.21-3.12-.45-1.4-2.84Z" transform="translate(-46.48 -9.74)"/><polygon class="cls-1" points="1357.03 41.57 1354.89 42.69 1355.3 40.32 1353.57 38.64 1355.96 38.29 1357.03 36.13 1358.09 38.29 1360.47 38.64 1358.75 40.32 1359.16 42.69 1357.03 41.57"/><path d="M1403.5,47l.5,1,.23.47.52.08,1.13.16-.82.79-.37.37.09.51.19,1.12-1-.53-.47-.24L1403,51l-1,.53.19-1.12.09-.51-.37-.37-.82-.79,1.13-.16.52-.08L1403,48l.5-1m0-2.26-1.4,2.84L1399,48l2.26,2.21-.54,3.11,2.8-1.47,2.8,1.47-.54-3.11L1408,48l-3.12-.45-1.4-2.84Z" transform="translate(-46.48 -9.74)"/><polygon class="cls-1" points="1642.53 42.07 1640.39 43.19 1640.8 40.82 1639.07 39.14 1641.46 38.79 1642.53 36.63 1643.59 38.79 1645.97 39.14 1644.25 40.82 1644.66 43.19 1642.53 42.07"/><path d="M1689,47.5l.5,1,.23.47.52.08,1.13.16-.82.79-.37.37.09.51.19,1.12-1-.53-.47-.24-.47.24-1,.53.19-1.12.09-.51-.37-.37-.82-.79,1.13-.16.52-.08.23-.47.5-1m0-2.26-1.4,2.84-3.12.45,2.26,2.21-.54,3.11,2.8-1.47,2.8,1.47-.54-3.11,2.26-2.21-3.12-.45-1.4-2.84Z" transform="translate(-46.48 -9.74)"/><polygon class="cls-1" points="342.52 104.07 340.39 105.19 340.8 102.82 339.07 101.14 341.46 100.79 342.52 98.63 343.59 100.79 345.97 101.14 344.25 102.82 344.66 105.19 342.52 104.07"/><path d="M389,109.5l.5,1,.23.47.52.08,1.13.16-.82.79-.37.37.09.51.19,1.12-1-.53-.47-.24-.47.24-1,.53.19-1.12.09-.51-.37-.37-.82-.79,1.13-.16.52-.08.23-.47.5-1m0-2.26-1.4,2.84-3.12.45,2.26,2.21-.54,3.11,2.8-1.47,2.8,1.47-.54-3.11,2.26-2.21-3.12-.45-1.4-2.84Z" transform="translate(-46.48 -9.74)"/><polygon class="cls-1" points="1724.53 352.07 1722.39 353.19 1722.8 350.82 1721.07 349.14 1723.46 348.79 1724.53 346.63 1725.59 348.79 1727.97 349.14 1726.25 350.82 1726.66 353.19 1724.53 352.07"/><path d="M1771,357.5l.5,1,.23.47.52.08,1.13.16-.82.79-.37.37.09.51.19,1.12-1-.53-.47-.24-.47.24-1,.53.19-1.12.09-.51-.37-.37-.82-.79,1.13-.16.52-.08.23-.47.5-1m0-2.26-1.4,2.84-3.12.45,2.26,2.21-.54,3.11,2.8-1.47,2.8,1.47-.54-3.11,2.26-2.21-3.12-.45-1.4-2.84Z" transform="translate(-46.48 -9.74)"/><polygon class="cls-1" points="1515.53 365.07 1513.39 366.19 1513.8 363.82 1512.07 362.14 1514.46 361.79 1515.53 359.63 1516.59 361.79 1518.97 362.14 1517.25 363.82 1517.66 366.19 1515.53 365.07"/><path d="M1562,370.5l.5,1,.23.47.52.08,1.13.16-.82.79-.37.37.09.51.19,1.12-1-.53-.47-.24-.47.24-1,.53.19-1.12.09-.51-.37-.37-.82-.79,1.13-.16.52-.08.23-.47.5-1m0-2.26-1.4,2.84-3.12.45,2.26,2.21-.54,3.11,2.8-1.47,2.8,1.47-.54-3.11,2.26-2.21-3.12-.45-1.4-2.84Z" transform="translate(-46.48 -9.74)"/><polygon class="cls-1" points="1570.03 240.57 1567.89 241.69 1568.3 239.32 1566.57 237.64 1568.96 237.29 1570.03 235.13 1571.09 237.29 1573.47 237.64 1571.75 239.32 1572.16 241.69 1570.03 240.57"/><path d="M1616.5,246l.5,1,.23.47.52.08,1.13.16-.82.79-.37.37.09.51.19,1.12-1-.53-.47-.24-.47.24-1,.53.19-1.12.09-.51-.37-.37-.82-.79,1.13-.16.52-.08.23-.47.5-1m0-2.26-1.4,2.84L1612,247l2.26,2.21-.54,3.11,2.8-1.47,2.8,1.47-.54-3.11L1621,247l-3.12-.45-1.4-2.84Z" transform="translate(-46.48 -9.74)"/><polygon class="cls-1" points="1696.53 141.07 1694.39 142.19 1694.8 139.82 1693.07 138.14 1695.46 137.79 1696.53 135.63 1697.59 137.79 1699.97 138.14 1698.25 139.82 1698.66 142.19 1696.53 141.07"/><path d="M1743,146.5l.5,1,.23.47.52.08,1.13.16-.82.79-.37.37.09.51.19,1.12-1-.53-.47-.24-.47.24-1,.53.19-1.12.09-.51-.37-.37-.82-.79,1.13-.16.52-.08.23-.47.5-1m0-2.26-1.4,2.84-3.12.45,2.26,2.21-.54,3.11,2.8-1.47,2.8,1.47-.54-3.11,2.26-2.21-3.12-.45-1.4-2.84Z" transform="translate(-46.48 -9.74)"/><polygon class="cls-1" points="1755.03 240.57 1752.89 241.69 1753.3 239.32 1751.57 237.64 1753.96 237.29 1755.03 235.13 1756.09 237.29 1758.47 237.64 1756.75 239.32 1757.16 241.69 1755.03 240.57"/><path d="M1801.5,246l.5,1,.23.47.52.08,1.13.16-.82.79-.37.37.09.51.19,1.12-1-.53-.47-.24-.47.24-1,.53.19-1.12.09-.51-.37-.37-.82-.79,1.13-.16.52-.08.23-.47.5-1m0-2.26-1.4,2.84L1797,247l2.26,2.21-.54,3.11,2.8-1.47,2.8,1.47-.54-3.11L1806,247l-3.12-.45-1.4-2.84Z" transform="translate(-46.48 -9.74)"/><polygon class="cls-1" points="1528.53 532.07 1526.39 533.19 1526.8 530.82 1525.07 529.14 1527.46 528.79 1528.53 526.63 1529.59 528.79 1531.97 529.14 1530.25 530.82 1530.66 533.19 1528.53 532.07"/><path d="M1575,537.5l.5,1,.23.47.52.08,1.13.16-.82.79-.37.37.09.51.19,1.12-1-.53-.47-.24-.47.24-1,.53.19-1.12.09-.51-.37-.37-.82-.79,1.13-.16.52-.08.23-.47.5-1m0-2.26-1.4,2.84-3.12.45,2.26,2.21-.54,3.11,2.8-1.47,2.8,1.47-.54-3.11,2.26-2.21-3.12-.45-1.4-2.84Z" transform="translate(-46.48 -9.74)"/><polygon class="cls-1" points="1759.53 508.07 1757.39 509.19 1757.8 506.82 1756.07 505.14 1758.46 504.79 1759.53 502.63 1760.59 504.79 1762.97 505.14 1761.25 506.82 1761.66 509.19 1759.53 508.07"/><path d="M1806,513.5l.5,1,.23.47.52.08,1.13.16-.82.79-.37.37.09.51.19,1.12-1-.53-.47-.24-.47.24-1,.53.19-1.12.09-.51-.37-.37-.82-.79,1.13-.16.52-.08.23-.47.5-1m0-2.26-1.4,2.84-3.12.45,2.26,2.21-.54,3.11,2.8-1.47,2.8,1.47-.54-3.11,2.26-2.21-3.12-.45-1.4-2.84Z" transform="translate(-46.48 -9.74)"/><polygon class="cls-1" points="1638.03 452.57 1635.89 453.69 1636.3 451.32 1634.57 449.64 1636.96 449.29 1638.03 447.13 1639.09 449.29 1641.47 449.64 1639.75 451.32 1640.16 453.69 1638.03 452.57"/><path d="M1684.5,458l.5,1,.23.47.52.08,1.13.16-.82.79-.37.37.09.51.19,1.12-1-.53-.47-.24-.47.24-1,.53.19-1.12.09-.51-.37-.37-.82-.79,1.13-.16.52-.08.23-.47.5-1m0-2.26-1.4,2.84L1680,459l2.26,2.21-.54,3.11,2.8-1.47,2.8,1.47-.54-3.11L1689,459l-3.12-.45-1.4-2.84Z" transform="translate(-46.48 -9.74)"/><polygon class="cls-1" points="1543.53 648.07 1541.39 649.19 1541.8 646.82 1540.07 645.14 1542.46 644.79 1543.53 642.63 1544.59 644.79 1546.97 645.14 1545.25 646.82 1545.66 649.19 1543.53 648.07"/><path d="M1590,653.5l.5,1,.23.47.52.08,1.13.16-.82.79-.37.37.09.51.19,1.12-1-.53-.47-.24-.47.24-1,.53.19-1.12.09-.51-.37-.37-.82-.79,1.13-.16.52-.08.23-.47.5-1m0-2.26-1.4,2.84-3.12.45,2.26,2.21-.54,3.11,2.8-1.47,2.8,1.47-.54-3.11,2.26-2.21-3.12-.45-1.4-2.84Z" transform="translate(-46.48 -9.74)"/><polygon class="cls-1" points="1701.03 601.57 1698.89 602.69 1699.3 600.32 1697.57 598.64 1699.96 598.29 1701.03 596.13 1702.09 598.29 1704.47 598.64 1702.75 600.32 1703.16 602.69 1701.03 601.57"/><path d="M1747.5,607l.5,1,.23.47.52.08,1.13.16-.82.79-.37.37.09.51.19,1.12-1-.53-.47-.24-.47.24-1,.53.19-1.12.09-.51-.37-.37-.82-.79,1.13-.16.52-.08.23-.47.5-1m0-2.26-1.4,2.84L1743,608l2.26,2.21-.54,3.11,2.8-1.47,2.8,1.47-.54-3.11L1752,608l-3.12-.45-1.4-2.84Z" transform="translate(-46.48 -9.74)"/><polygon class="cls-1" points="1823.53 588.07 1821.39 589.19 1821.8 586.82 1820.07 585.14 1822.46 584.79 1823.53 582.63 1824.59 584.79 1826.97 585.14 1825.25 586.82 1825.66 589.19 1823.53 588.07"/><path d="M1870,593.5l.5,1,.23.47.52.08,1.13.16-.82.79-.37.37.09.51.19,1.12-1-.53-.47-.24-.47.24-1,.53.19-1.12.09-.51-.37-.37-.82-.79,1.13-.16.52-.08.23-.47.5-1m0-2.26-1.4,2.84-3.12.45,2.26,2.21-.54,3.11,2.8-1.47,2.8,1.47-.54-3.11,2.26-2.21-3.12-.45-1.4-2.84Z" transform="translate(-46.48 -9.74)"/><polygon class="cls-1" points="1795.53 405.07 1793.39 406.19 1793.8 403.82 1792.07 402.14 1794.46 401.79 1795.53 399.63 1796.59 401.79 1798.97 402.14 1797.25 403.82 1797.66 406.19 1795.53 405.07"/><path d="M1842,410.5l.5,1,.23.47.52.08,1.13.16-.82.79-.37.37.09.51.19,1.12-1-.53-.47-.24-.47.24-1,.53.19-1.12.09-.51-.37-.37-.82-.79,1.13-.16.52-.08.23-.47.5-1m0-2.26-1.4,2.84-3.12.45,2.26,2.21-.54,3.11,2.8-1.47,2.8,1.47-.54-3.11,2.26-2.21-3.12-.45-1.4-2.84Z" transform="translate(-46.48 -9.74)"/><polygon class="cls-1" points="1800.03 296.57 1797.89 297.69 1798.3 295.32 1796.57 293.64 1798.96 293.29 1800.03 291.13 1801.09 293.29 1803.47 293.64 1801.75 295.32 1802.16 297.69 1800.03 296.57"/><path d="M1846.5,302l.5,1,.23.47.52.08,1.13.16-.82.79-.37.37.09.51.19,1.12-1-.53-.47-.24-.47.24-1,.53.19-1.12.09-.51-.37-.37-.82-.79,1.13-.16.52-.08.23-.47.5-1m0-2.26-1.4,2.84L1842,303l2.26,2.21-.54,3.11,2.8-1.47,2.8,1.47-.54-3.11L1851,303l-3.12-.45-1.4-2.84Z" transform="translate(-46.48 -9.74)"/><polygon class="cls-1" points="1795.53 120.07 1793.39 121.19 1793.8 118.82 1792.07 117.14 1794.46 116.79 1795.53 114.63 1796.59 116.79 1798.97 117.14 1797.25 118.82 1797.66 121.19 1795.53 120.07"/><path d="M1842,125.5l.5,1,.23.47.52.08,1.13.16-.82.79-.37.37.09.51.19,1.12-1-.53-.47-.24-.47.24-1,.53.19-1.12.09-.51-.37-.37-.82-.79,1.13-.16.52-.08.23-.47.5-1m0-2.26-1.4,2.84-3.12.45,2.26,2.21-.54,3.11,2.8-1.47,2.8,1.47-.54-3.11,2.26-2.21-3.12-.45-1.4-2.84Z" transform="translate(-46.48 -9.74)"/><polygon class="cls-1" points="1828.03 6.57 1825.89 7.69 1826.3 5.32 1824.57 3.64 1826.96 3.29 1828.03 1.13 1829.09 3.29 1831.47 3.64 1829.75 5.32 1830.16 7.69 1828.03 6.57"/><path d="M1874.5,12l.5,1,.23.47.52.08,1.13.16-.82.79-.37.37.09.51.19,1.12-1-.53-.47-.24L1874,16l-1,.53.19-1.12.09-.51-.37-.37-.82-.79,1.13-.16.52-.08L1874,13l.5-1m0-2.26-1.4,2.84L1870,13l2.26,2.21-.54,3.11,2.8-1.47,2.8,1.47-.54-3.11L1879,13l-3.12-.45-1.4-2.84Z" transform="translate(-46.48 -9.74)"/><polygon class="cls-1" points="465.02 273.57 462.89 274.69 463.3 272.32 461.57 270.64 463.96 270.29 465.02 268.13 466.09 270.29 468.47 270.64 466.75 272.32 467.16 274.69 465.02 273.57"/><path d="M511.5,279l.5,1,.23.47.52.08,1.13.16-.82.79-.37.37.09.51.19,1.12-1-.53-.47-.24L511,283l-1,.53.19-1.12.09-.51-.37-.37-.82-.79,1.13-.16.52-.08L511,280l.5-1m0-2.26-1.4,2.84L507,280l2.26,2.21-.54,3.11,2.8-1.47,2.8,1.47-.54-3.11L516,280l-3.12-.45-1.4-2.84Z" transform="translate(-46.48 -9.74)"/><polygon class="cls-1" points="309.52 347.07 307.39 348.19 307.8 345.82 306.07 344.14 308.46 343.79 309.52 341.63 310.59 343.79 312.97 344.14 311.25 345.82 311.66 348.19 309.52 347.07"/><path d="M356,352.5l.5,1,.23.47.52.08,1.13.16-.82.79-.37.37.09.51.19,1.12-1-.53-.47-.24-.47.24-1,.53.19-1.12.09-.51-.37-.37-.82-.79,1.13-.16.52-.08.23-.47.5-1m0-2.26-1.4,2.84-3.12.45,2.26,2.21-.54,3.11,2.8-1.47,2.8,1.47-.54-3.11,2.26-2.21-3.12-.45-1.4-2.84Z" transform="translate(-46.48 -9.74)"/><polygon class="cls-1" points="1548.03 786.57 1545.89 787.69 1546.3 785.32 1544.57 783.64 1546.96 783.29 1548.03 781.13 1549.09 783.29 1551.47 783.64 1549.75 785.32 1550.16 787.69 1548.03 786.57"/><path d="M1594.5,792l.5,1,.23.47.52.08,1.13.16-.82.79-.37.37.09.51.19,1.12-1-.53-.47-.24-.47.24-1,.53.19-1.12.09-.51-.37-.37-.82-.79,1.13-.16.52-.08.23-.47.5-1m0-2.26-1.4,2.84L1590,793l2.26,2.21-.54,3.11,2.8-1.47,2.8,1.47-.54-3.11L1599,793l-3.12-.45-1.4-2.84Z" transform="translate(-46.48 -9.74)"/><polygon class="cls-1" points="1667.53 690.07 1665.39 691.19 1665.8 688.82 1664.07 687.14 1666.46 686.79 1667.53 684.63 1668.59 686.79 1670.97 687.14 1669.25 688.82 1669.66 691.19 1667.53 690.07"/><path d="M1714,695.5l.5,1,.23.47.52.08,1.13.16-.82.79-.37.37.09.51.19,1.12-1-.53-.47-.24-.47.24-1,.53.19-1.12.09-.51-.37-.37-.82-.79,1.13-.16.52-.08.23-.47.5-1m0-2.26-1.4,2.84-3.12.45,2.26,2.21-.54,3.11,2.8-1.47,2.8,1.47-.54-3.11,2.26-2.21-3.12-.45-1.4-2.84Z" transform="translate(-46.48 -9.74)"/><polygon class="cls-1" points="1613.03 559.57 1610.89 560.69 1611.3 558.32 1609.57 556.64 1611.96 556.29 1613.03 554.13 1614.09 556.29 1616.47 556.64 1614.75 558.32 1615.16 560.69 1613.03 559.57"/><path d="M1659.5,565l.5,1,.23.47.52.08,1.13.16-.82.79-.37.37.09.51.19,1.12-1-.53-.47-.24-.47.24-1,.53.19-1.12.09-.51-.37-.37-.82-.79,1.13-.16.52-.08.23-.47.5-1m0-2.26-1.4,2.84L1655,566l2.26,2.21-.54,3.11,2.8-1.47,2.8,1.47-.54-3.11L1664,566l-3.12-.45-1.4-2.84Z" transform="translate(-46.48 -9.74)"/><polygon class="cls-1" points="1804.53 690.07 1802.39 691.19 1802.8 688.82 1801.07 687.14 1803.46 686.79 1804.53 684.63 1805.59 686.79 1807.97 687.14 1806.25 688.82 1806.66 691.19 1804.53 690.07"/><path d="M1851,695.5l.5,1,.23.47.52.08,1.13.16-.82.79-.37.37.09.51.19,1.12-1-.53-.47-.24-.47.24-1,.53.19-1.12.09-.51-.37-.37-.82-.79,1.13-.16.52-.08.23-.47.5-1m0-2.26-1.4,2.84-3.12.45,2.26,2.21-.54,3.11,2.8-1.47,2.8,1.47-.54-3.11,2.26-2.21-3.12-.45-1.4-2.84Z" transform="translate(-46.48 -9.74)"/></svg>